# Blender v2.67 (sub 0) OBJ File: 'uvCube.blend'
# www.blender.org
o Cube
v 1.000000 -1.000000 -1.000000
v 1.000000 -1.000000 1.000000
v -1.000000 -1.000000 1.000000
v -1.000000 -1.000000 -1.000000
v 1.000000 1.000000 -0.999999
v 0.999999 1.000000 1.000001
v -1.000000 1.000000 1.000000
v -1.000000 1.000000 -1.000000
vt 0.500899 0.335500
vt 0.750866 0.335472
vt 0.750168 0.666770
vt 0.254679 0.334536
vt 0.253982 0.667713
vt 0.000101 0.667841
vt 0.500871 0.001183
vt 0.750838 0.001155
vt 0.999271 0.335444
vt 0.750153 1.000006
vt 0.499771 0.668484
vt 0.000073 0.334566
vt 0.999299 0.666635
vt 0.500983 1.000020
vt 0.253182 0.669846
vn 0.000000 -1.000000 0.000000
vn -0.000000 1.000000 0.000000
vn 1.000000 -0.000000 0.000001
vn -0.000000 -0.000000 1.000000
vn -1.000000 -0.000000 -0.000000
vn 0.000000 0.000000 -1.000000
vn 1.000000 0.000000 -0.000000
s off
f 1/1/1 2/2/1 3/3/1
f 5/4/2 8/5/2 7/6/2
f 1/1/3 5/7/3 6/8/3
f 2/2/4 6/9/4 3/3/4
f 3/3/5 7/10/5 4/11/5
f 5/4/6 1/1/6 4/11/6
f 4/11/1 1/1/1 3/3/1
f 6/12/2 5/4/2 7/6/2
f 2/2/7 1/1/7 6/8/7
f 6/9/4 7/13/4 3/3/4
f 7/10/5 8/14/5 4/11/5
f 8/15/6 5/4/6 4/11/6
